<svg xmlns="http://www.w3.org/2000/svg" xmlns:xlink="http://www.w3.org/1999/xlink" viewBox="0,0,256,256" width="100px" height="100px" fill-rule="nonzero"><g fill="none" fill-rule="nonzero" stroke="none" stroke-width="1" stroke-linecap="butt" stroke-linejoin="miter" stroke-miterlimit="10" stroke-dasharray="" stroke-dashoffset="0" font-family="none" font-weight="none" font-size="none" text-anchor="none" style="mix-blend-mode: normal"><g transform="scale(2.56,2.56)"><path d="M87.2,56.7c1.1,-2.2 1.8,-4.6 1.8,-7.2c0,-6.6 -4.2,-12.3 -10,-14.5v0c0,-11.6 -9.4,-21 -21,-21c-9.8,0 -18,6.7 -20.3,15.8c-1.5,-0.5 -3,-0.8 -4.7,-0.8c-7.7,0 -14,5.8 -14.9,13.3c-5.2,1.1 -9.1,5.7 -9.1,11.2c0,6.4 5.1,11.5 11.5,11.5c0.2,0 0.4,0 0.5,0c0,0.2 0,0.3 0,0.5c0,11.3 9.2,20.5 20.5,20.5c6.4,0 12.2,-3 15.9,-7.6c2.2,2.2 5.2,3.6 8.6,3.6c4.7,0 8.7,-2.7 10.7,-6.5c1.1,0.3 2.2,0.5 3.3,0.5c6.1,0 11,-4.9 11,-11c0,-3.3 -1.5,-6.3 -3.8,-8.3z" fill="#ffb8b8"></path><path d="M69,49h-5.8c-2.5,0.8 -4.5,-1.3 -4.5,-3.8c0,-2.3 1.8,-4.2 4.1,-4.5c0,-0.2 -0.1,-0.4 -0.1,-0.5c0,-2.5 2,-4.5 4.5,-4.5c1.4,0 2.7,0.7 3.5,1.7c0.1,-2.6 2.3,-4.7 5,-4.7c2.8,0 5,2.2 5,5c0,0.4 -0.1,0.9 -0.2,1.3c0.6,-0.8 1.6,-1.3 2.7,-1.3c1.8,0 3.2,1.3 3.5,3.1c0.2,0 0.4,-0.1 0.5,-0.1c2.5,0 4.5,2 4.5,4.5c0,2.5 -2,4.5 -4.5,3.8h-9.5h-5.7v1h-3z" fill="#fdfcef"></path><path d="M75.5,32c3,0 5.5,2.5 5.5,5.5v0c0.6,-0.4 1.3,-0.5 2,-0.5c1.8,0 3.4,1.3 3.9,3h0.1c3.1,0 5.5,2.8 4.9,6c-0.5,2.4 -2.7,4 -5.1,4h-14.7c-0.3,0 -0.5,-0.2 -0.5,-0.5c0,-0.3 0.2,-0.5 0.5,-0.5h14.7c1.9,0 3.7,-1.3 4.1,-3.2c0.5,-2.6 -1.4,-4.8 -3.9,-4.8c-0.1,0 -0.2,0 -0.3,0h-0.1c0,0 0,0 -0.1,0c-0.2,0 -0.5,-0.2 -0.5,-0.4c-0.2,-1.5 -1.5,-2.6 -3,-2.6c-0.9,0 -1.7,0.4 -2.3,1.1c-0.1,0.1 -0.2,0.2 -0.4,0.2c-0.1,0 -0.2,0 -0.2,-0.1c-0.2,-0.1 -0.3,-0.3 -0.3,-0.6c0.2,-0.6 0.2,-1.1 0.1,-1.5c-0.2,-2.1 -2,-3.9 -4.1,-4.1c-2.6,-0.2 -4.7,1.7 -4.9,4.2c0,0.2 -0.2,0.4 -0.3,0.5c-0.1,0 -0.1,0 -0.2,0c-0.2,0 -0.3,-0.1 -0.4,-0.2c-0.8,-1 -1.9,-1.5 -3.1,-1.5c-2.2,0 -4,1.8 -4,4c0,0.1 0,0.2 0,0.3v0.1c0,0.1 0,0.3 -0.1,0.4c-0.1,0.1 -0.1,0.2 -0.2,0.2c-2.4,0.2 -4,2.4 -3.5,4.9c0.4,1.9 2.2,3.1 4.1,3.1h6c0.3,0 0.5,0.2 0.5,0.5c0,0.3 -0.3,0.5 -0.6,0.5h-5.9c-2.5,0 -4.7,-1.7 -5.1,-4.1c-0.5,-2.8 1.3,-5.2 3.9,-5.7v-0.1c0,-2.8 2.2,-5 5,-5c1.2,0 2.3,0.4 3.2,1.2c0.6,-2.5 2.7,-4.3 5.3,-4.3z" fill="#472b29"></path><path d="M77.3,39.3c1.4,0 2.6,1 2.9,2.3c0.4,-0.2 0.8,-0.3 1.2,-0.3c1.2,0 2.2,0.9 2.4,2.1c0.2,0 0.4,-0.1 0.6,-0.1c1.5,0 2.8,1.2 2.9,2.7c0,0.1 -0.1,0.3 -0.2,0.3v0c-0.1,0 -0.2,-0.1 -0.2,-0.2c-0.1,-1.3 -1.2,-2.3 -2.4,-2.3c-0.2,0 -0.5,0 -0.7,0.1c0,0 0,0 -0.1,0c-0.1,0 -0.1,0 -0.2,-0.1c-0.1,0 -0.1,-0.1 -0.1,-0.2c0,-1 -0.8,-1.9 -1.9,-1.9c-0.4,0 -0.9,0.2 -1.2,0.5c0,0 -0.1,0.1 -0.2,0.1h-0.1c-0.1,0 -0.1,-0.1 -0.2,-0.2c-0.1,-1.3 -1.2,-2.3 -2.5,-2.3c-0.2,0 -0.4,0 -0.7,0.1c0,0 0,0 -0.1,0c-0.1,0 -0.2,-0.1 -0.2,-0.2c0,-0.1 0,-0.3 0.2,-0.3c0.2,-0.1 0.5,-0.1 0.8,-0.1zM63.4,40.8c1.3,0 2.5,0.9 2.9,2.2c0,0.1 0,0.3 -0.2,0.3c0,0 0,0 -0.1,0c-0.1,0 -0.2,-0.1 -0.2,-0.2c-0.3,-1.1 -1.3,-1.8 -2.4,-1.8c-0.1,0 -0.2,0 -0.3,0v0c-0.1,0 -0.2,-0.1 -0.2,-0.2c0,-0.1 0.1,-0.3 0.2,-0.3c0,0 0.1,0 0.3,0z" fill="#472b29"></path><path d="M15.4,51h-9.9c-0.3,0 -0.5,-0.2 -0.5,-0.5c0,-0.3 0.2,-0.5 0.5,-0.5h9.9c0.3,0 0.5,0.2 0.5,0.5c0,0.3 -0.2,0.5 -0.5,0.5zM18.5,51h-1c-0.3,0 -0.5,-0.2 -0.5,-0.5c0,-0.3 0.2,-0.5 0.5,-0.5h1c0.3,0 0.5,0.2 0.5,0.5c0,0.3 -0.2,0.5 -0.5,0.5zM23.5,53h-9c-0.3,0 -0.5,-0.2 -0.5,-0.5c0,-0.3 0.2,-0.5 0.5,-0.5h9c0.3,0 0.5,0.2 0.5,0.5c0,0.3 -0.2,0.5 -0.5,0.5zM12.5,53h-1c-0.3,0 -0.5,-0.2 -0.5,-0.5c0,-0.3 0.2,-0.5 0.5,-0.5h1c0.3,0 0.5,0.2 0.5,0.5c0,0.3 -0.2,0.5 -0.5,0.5zM9.5,53h-2c-0.3,0 -0.5,-0.2 -0.5,-0.5c0,-0.3 0.2,-0.5 0.5,-0.5h2c0.3,0 0.5,0.2 0.5,0.5c0,0.3 -0.2,0.5 -0.5,0.5zM15.5,55h-2c-0.3,0 -0.5,-0.2 -0.5,-0.5c0,-0.3 0.2,-0.5 0.5,-0.5h2c0.3,0 0.5,0.2 0.5,0.5c0,0.3 -0.2,0.5 -0.5,0.5zM18.5,46c-0.2,0 -0.8,0 -1,0c-0.3,0 -0.5,0.2 -0.5,0.5c0,0.3 0.2,0.5 0.5,0.5c0.2,0 0.8,0 1,0c0.3,0 0.5,-0.2 0.5,-0.5c0,-0.3 -0.2,-0.5 -0.5,-0.5zM18.5,48c-0.2,0 -4.8,0 -5,0c-0.3,0 -0.5,0.2 -0.5,0.5c0,0.3 0.2,0.5 0.5,0.5c0.2,0 4.8,0 5,0c0.3,0 0.5,-0.2 0.5,-0.5c0,-0.3 -0.2,-0.5 -0.5,-0.5zM23.5,50c-0.2,0 -2.8,0 -3,0c-0.3,0 -0.5,0.2 -0.5,0.5c0,0.3 0.2,0.5 0.5,0.5c0.2,0 2.8,0 3,0c0.3,0 0.5,-0.2 0.5,-0.5c0,-0.3 -0.2,-0.5 -0.5,-0.5zM84,66h-10c-0.3,0 -0.5,-0.2 -0.5,-0.5c0,-0.3 0.2,-0.5 0.5,-0.5h10c0.3,0 0.5,0.2 0.5,0.5c0,0.3 -0.2,0.5 -0.5,0.5zM88,66h-2c-0.3,0 -0.5,-0.2 -0.5,-0.5c0,-0.3 0.2,-0.5 0.5,-0.5h2c0.3,0 0.5,0.2 0.5,0.5c0,0.3 -0.2,0.5 -0.5,0.5zM93,68h-10c-0.3,0 -0.5,-0.2 -0.5,-0.5c0,-0.3 0.2,-0.5 0.5,-0.5h10c0.3,0 0.5,0.2 0.5,0.5c0,0.3 -0.2,0.5 -0.5,0.5zM81,68h-1c-0.3,0 -0.5,-0.2 -0.5,-0.5c0,-0.3 0.2,-0.5 0.5,-0.5h1c0.3,0 0.5,0.2 0.5,0.5c0,0.3 -0.2,0.5 -0.5,0.5zM77.9,68h-1.9c-0.3,0 -0.5,-0.2 -0.5,-0.5c0,-0.3 0.2,-0.5 0.5,-0.5h1.9c0.3,0 0.5,0.2 0.5,0.5c0,0.3 -0.2,0.5 -0.5,0.5zM87,64h-5c-0.3,0 -0.5,-0.2 -0.5,-0.5c0,-0.3 0.2,-0.5 0.5,-0.5h5c0.3,0 0.5,0.2 0.5,0.5c0,0.3 -0.2,0.5 -0.5,0.5zM84,70h-2c-0.3,0 -0.5,-0.2 -0.5,-0.5c0,-0.3 0.2,-0.5 0.5,-0.5h2c0.3,0 0.5,0.2 0.5,0.5c0,0.3 -0.2,0.5 -0.5,0.5z" fill="#ffffff"></path><path d="M44.4,73.3c-3.7,0 -7.8,-2 -7.8,-6.5v-24.9l-2.9,-3.4v-3.3c0,-4.6 2,-6.5 7,-6.5h23.7c4.9,0 7,1.9 7,6.5v3.3l-2.9,3.3v24.9c0,4.5 -4.1,6.5 -7.9,6.5h-16.2z" fill="#8b8bc1"></path><path d="M64.3,29.4c5.2,0 6.3,2.2 6.3,5.8v0.2v1v1.9l-2.6,2.9l-0.3,0.4v0.5v24.6c0,4 -3.6,5.8 -7.2,5.8h-16.1c-3.5,0 -7.1,-1.8 -7.1,-5.8v-24.5v-0.5l-0.3,-0.4l-2.6,-3v-2v-1v-0.2c0,-3.6 1,-5.8 6.3,-5.8l23.6,0.1M64.3,28h-23.6c-5.7,0 -7.7,2.5 -7.7,7.2v0.2v1v2.5l2.9,3.4v24.6c0,4.7 4.1,7.2 8.5,7.2h16.1c4.5,0 8.6,-2.5 8.6,-7.2v-24.7l2.9,-3.3v-2.5v-1v-0.2c0,-4.7 -1.9,-7.2 -7.7,-7.2z" fill="#472b29"></path><g fill="#6869ad"><path d="M47.1,55.4v-12.5c0,-0.9 0.8,-1.6 1.8,-1.6v0c1,0 1.8,0.7 1.8,1.6v12.2v9.9c0,0.9 -0.8,1.6 -1.8,1.6v0c-1,0 -1.8,-0.7 -1.8,-1.6v-2"></path></g><g fill="#6869ad"><path d="M40.2,55.4v-12.5c0,-0.9 0.8,-1.6 1.8,-1.6v0c1,0 1.8,0.7 1.8,1.6v12.2v9.9c0,0.9 -0.8,1.6 -1.8,1.6v0c-1,0 -1.8,-0.7 -1.8,-1.6v-2"></path></g><g fill="#6869ad"><path d="M54.1,55.5v-12.6c0,-0.9 0.8,-1.6 1.8,-1.6v0c1,0 1.8,0.7 1.8,1.6v12.2v10c0,0.9 -0.8,1.6 -1.8,1.6v0c-1,0 -1.8,-0.7 -1.8,-1.6v-2.1"></path></g><g fill="#6869ad"><path d="M61.2,55.5v-12.6c0,-0.9 0.8,-1.6 1.8,-1.6v0c1,0 1.8,0.7 1.8,1.6v12.2v10c0,0.9 -0.8,1.6 -1.8,1.6v0c-1,0 -1.8,-0.7 -1.8,-1.6v-2.1"></path></g><g fill="#472b29"><path d="M63,41.5c0.8,0 1.5,0.5 1.5,1.2v12.5v10.2c0,0.6 -0.7,1.2 -1.5,1.2c-0.8,0 -1.5,-0.5 -1.5,-1.2v-2.1v-7.7v-12.9c0,-0.7 0.7,-1.2 1.5,-1.2M63,41c-1.1,0 -2,0.8 -2,1.7v12.8v7.7v2.1c0,0.9 0.9,1.7 2,1.7c1.1,0 2,-0.8 2,-1.7v-10.1v-12.5c0,-0.9 -0.9,-1.7 -2,-1.7z"></path></g><g fill="#472b29"><path d="M42,67c-1,0 -1.8,-0.8 -1.8,-1.9v-4.1c0,-0.1 0.1,-0.3 0.3,-0.3c0.2,0 0.3,0.1 0.3,0.3v4.1c0,0.8 0.6,1.4 1.3,1.4c0.7,0 1.3,-0.6 1.3,-1.4v-22.2c0,-0.8 -0.6,-1.4 -1.3,-1.4c-0.7,0 -1.3,0.6 -1.3,1.4v8c0,0.1 -0.1,0.3 -0.3,0.3c-0.2,0 -0.3,-0.1 -0.3,-0.3v-8c0,-1 0.8,-1.9 1.8,-1.9c1,0 1.8,0.8 1.8,1.9v22.2c0,1.1 -0.8,1.9 -1.8,1.9z"></path></g><g fill="#472b29"><path d="M56,41.5c0.8,0 1.5,0.5 1.5,1.2v12.5v10.2c0,0.6 -0.7,1.2 -1.5,1.2c-0.8,0 -1.5,-0.5 -1.5,-1.2v-2.1v-7.7v-12.9c0,-0.7 0.7,-1.2 1.5,-1.2M56,41c-1.1,0 -2,0.8 -2,1.7v12.8v7.7v2.1c0,0.9 0.9,1.7 2,1.7c1.1,0 2,-0.8 2,-1.7v-10.1v-12.5c0,-0.9 -0.9,-1.7 -2,-1.7z"></path></g><g fill="#472b29"><path d="M49,41.5c0.8,0 1.5,0.5 1.5,1.2v12.5v10.2c0,0.6 -0.7,1.2 -1.5,1.2c-0.8,0 -1.5,-0.5 -1.5,-1.2v-2.1v-7.7v-12.9c0,-0.7 0.7,-1.2 1.5,-1.2M49,41c-1.1,0 -2,0.8 -2,1.7v12.8v7.7v2.1c0,0.9 0.9,1.7 2,1.7c1.1,0 2,-0.8 2,-1.7v-10.1v-12.5c0,-0.9 -0.9,-1.7 -2,-1.7z"></path></g><g fill="#472b29"><path d="M35.6,45.6v6.8v0c-1.2,0 -2.2,-0.8 -2.2,-1.7v-3.4c0,-1 1,-1.7 2.2,-1.7v0M37,44.2h-1.4c-2,0 -3.6,1.4 -3.6,3.1v3.4c0,1.7 1.6,3.1 3.6,3.1h1.4v-9.6z"></path></g><g fill="#472b29"><path d="M69.4,45.6c1.2,0 2.2,0.8 2.2,1.7v3.4c0,0.9 -1,1.7 -2.2,1.7h-0.1l0.1,-6.8v0M69.4,44.2h-1.5v9.6h1.5c2,0 3.6,-1.4 3.6,-3.1v-3.4c0,-1.7 -1.6,-3.1 -3.6,-3.1z"></path></g><g fill="#472b29"><path d="M56.9,25.4c1.1,0 2.1,1.1 2.1,2.5v0.1h-12.3v-0.2c0,-1.3 0.9,-2.5 2.1,-2.5h8.1M56.9,24h-8.2c-1.9,0 -3.5,1.7 -3.5,3.9v1.6h15.1v-1.6c0,-2.2 -1.5,-3.9 -3.4,-3.9z"></path></g><g fill="#472b29"><path d="M70.5,38.8h-37c-0.1,0 -0.3,-0.1 -0.3,-0.3c0,-0.2 0.1,-0.3 0.3,-0.3h37c0.1,0 0.3,0.1 0.3,0.3c0,0.2 -0.2,0.3 -0.3,0.3z"></path></g><g fill="#472b29"><path d="M63.5,32.8h-29c-0.1,0 -0.3,-0.1 -0.3,-0.3c0,-0.2 0.1,-0.3 0.3,-0.3h29c0.1,0 0.3,0.1 0.3,0.3c0,0.2 -0.2,0.3 -0.3,0.3z"></path></g><g fill="#472b29"><path d="M67.5,69.8h-30c-0.1,0 -0.3,-0.1 -0.3,-0.3c0,-0.2 0.1,-0.3 0.3,-0.3h30c0.1,0 0.3,0.1 0.3,0.3c0,0.2 -0.2,0.3 -0.3,0.3z"></path></g><g fill="#472b29"><path d="M68.5,32.8h-3c-0.1,0 -0.3,-0.1 -0.3,-0.3c0,-0.2 0.1,-0.3 0.3,-0.3h3c0.1,0 0.3,0.1 0.3,0.3c0,0.2 -0.2,0.3 -0.3,0.3z"></path></g><g fill="#472b29"><path d="M40.5,58c-0.1,0 -0.3,-0.1 -0.3,-0.3v-3.5c0,-0.1 0.1,-0.3 0.3,-0.3c0.2,0 0.3,0.1 0.3,0.3v3.5c-0.1,0.2 -0.2,0.3 -0.3,0.3z"></path></g><g fill="#472b29"><path d="M71.5,36h-37c-0.3,0 -0.5,-0.2 -0.5,-0.5c0,-0.3 0.2,-0.5 0.5,-0.5h37c0.3,0 0.5,0.2 0.5,0.5c0,0.3 -0.2,0.5 -0.5,0.5z"></path></g><g><path d="M41.3,70.5c0,0 1.6,0 3.5,0c1.9,0 3.5,-1.6 3.5,-3.5c0,-1.8 -1.3,-3.2 -3.1,-3.5c0,-0.2 0.1,-0.4 0.1,-0.5c0,-1.9 -1.6,-3.5 -3.5,-3.5c-1,0 -2,0.5 -2.6,1.2c-0.4,-1.8 -2,-3.2 -3.9,-3.2c-2.2,0 -4,1.8 -4,4c0,0.2 0,0.4 0.1,0.6c-0.4,-0.3 -1,-0.6 -1.6,-0.6c-1.2,0 -2.2,0.9 -2.5,2.1c-0.2,0 -0.4,-0.1 -0.5,-0.1c-1.9,0 -3.5,1.6 -3.5,3.5c0,1.9 1.6,3.5 3.5,3.5c1.9,0 7.5,0 7.5,0v0.5h7z" fill="#fdfcef"></path><path d="M43,66c-0.1,0 -0.3,-0.1 -0.3,-0.3c0,-1.2 1,-2.2 2.2,-2.2c0,0 0.7,0 1.2,0.1c0.1,0 0.2,0.2 0.2,0.3c0,0.1 -0.2,0.2 -0.3,0.2c-0.4,-0.1 -1,-0.1 -1,-0.1c-0.9,0 -1.7,0.8 -1.7,1.7c0,0.2 -0.2,0.3 -0.3,0.3zM36.3,70c-0.27614,0 -0.5,0.22386 -0.5,0.5c0,0.27614 0.22386,0.5 0.5,0.5c0.27614,0 0.5,-0.22386 0.5,-0.5c0,-0.27614 -0.22386,-0.5 -0.5,-0.5z" fill="#472b29"></path><path d="M44.8,71h-3.5c-0.3,0 -0.5,-0.2 -0.5,-0.5c0,-0.3 0.2,-0.5 0.5,-0.5h3.5c1.7,0 3,-1.3 3,-3c0,-1.5 -1.1,-2.8 -2.6,-3c-0.1,0 -0.3,-0.1 -0.3,-0.2c0,-0.1 -0.1,-0.2 -0.1,-0.4c0,-0.2 0,-0.3 0,-0.5c0,-1.7 -1.3,-3 -3,-3c-0.8,0 -1.6,0.4 -2.2,1c-0.1,0.1 -0.3,0.2 -0.5,0.1c-0.2,0 -0.3,-0.2 -0.4,-0.4c-0.3,-1.6 -1.8,-2.8 -3.4,-2.8c-1.9,0 -3.5,1.6 -3.5,3.5c0,0.1 0,0.3 0,0.4c0,0.2 -0.1,0.4 -0.2,0.5c-0.1,0.1 -0.4,0.1 -0.6,0c-0.4,-0.3 -0.8,-0.4 -1.2,-0.4c-1,0 -1.8,0.7 -2,1.6c0,0.3 -0.3,0.4 -0.6,0.4c-0.2,0 -0.3,0 -0.5,0c-1.7,0 -3,1.3 -3,3c0,1.7 1.3,3 3,3h7.5c0.3,0 0.5,0.2 0.5,0.5c0,0.3 -0.2,0.7 -0.4,0.7h-7.5c-2.2,0 -4,-1.8 -4,-4c0,-2.2 1.8,-4 4,-4c0.1,0 0.1,0 0.2,0c0.4,-1.2 1.5,-2 2.8,-2c0.3,0 0.7,0.1 1,0.2c0.2,-2.3 2.1,-4.2 4.5,-4.2c1.8,0 3.5,1.1 4.2,2.8c0.7,-0.5 1.5,-0.8 2.3,-0.8c2.2,0 4,1.8 4,4v0.1c1.7,0.4 3,2 3,3.9c0,2.2 -1.8,4 -4,4z" fill="#472b29"></path><path d="M39.3,70c-0.2,0 -0.8,0 -1,0c-0.3,0 -0.5,0.2 -0.5,0.5c0,0.3 0.2,0.5 0.5,0.5c0.2,0 0.8,0 1,0c0.3,0 0.5,-0.2 0.5,-0.5c0,-0.3 -0.3,-0.5 -0.5,-0.5z" fill="#472b29"></path></g></g></g></svg>